Hanif_Deep_5_0_grf.mot
version=1
nRows=21
nColumns=19
inDegrees=yes
endheader
time	right_ground_force_vx	right_ground_force_vy	right_ground_force_vz	right_ground_force_px	right_ground_force_py	right_ground_force_pz	right_ground_torque_x	right_ground_torque_y	right_ground_torque_z	left_ground_force_vx	left_ground_force_vy	left_ground_force_vz	left_ground_force_px	left_ground_force_py	left_ground_force_pz	left_ground_torque_x	left_ground_torque_y	left_ground_torque_z
5.900000	-13.880800	254.548000	34.594400	0.215710	0.000000	-1.418660	-22.380800	0.980698	4.370740	-11.089500	252.722000	-27.363800	0.217939	0.000000	-0.987487	21.658100	-5.555620	5.289740
5.905000	-13.828100	258.352000	33.737100	0.215492	0.000000	-1.419010	-22.635000	1.256980	4.391950	-10.799700	253.885000	-27.399100	0.218091	0.000000	-0.988148	21.918600	-5.657080	5.356210
5.910000	-13.718800	263.786000	32.681100	0.215314	0.000000	-1.418860	-23.147400	1.423390	4.426210	-10.030300	259.023000	-27.350800	0.217840	0.000000	-0.987333	22.122300	-5.845990	5.379080
5.915000	-13.967900	270.808000	31.489600	0.215287	0.000000	-1.419120	-23.702800	1.677360	4.531960	-9.855290	261.856000	-27.024400	0.218494	0.000000	-0.988383	22.629600	-5.873890	5.587430
5.920000	-14.052100	274.931000	30.389300	0.215923	0.000000	-1.419280	-24.022300	1.831260	4.768230	-9.241320	265.746000	-27.145100	0.218278	0.000000	-0.987537	22.714000	-5.869040	5.587370
5.925000	-15.047300	277.011000	29.100400	0.216248	0.000000	-1.419200	-24.249600	1.986900	4.896520	-8.289800	270.312000	-27.478300	0.218071	0.000000	-0.986658	22.834400	-6.004450	5.616220
5.930000	-14.350200	281.014000	28.324100	0.215002	0.000000	-1.420180	-24.318500	2.284150	4.612980	-7.360240	274.814000	-27.493600	0.218686	0.000000	-0.987992	23.551600	-6.129320	5.862300
5.935000	-13.857900	286.764000	27.845800	0.215302	0.000000	-1.420240	-24.789300	2.445550	4.782240	-7.465180	281.544000	-27.798300	0.219442	0.000000	-0.986615	23.733200	-6.070470	6.188140
5.940000	-13.559500	290.692000	28.263000	0.214367	0.000000	-1.421230	-24.835200	2.595650	4.579960	-7.512130	288.100000	-27.940700	0.220739	0.000000	-0.986747	24.317800	-6.089310	6.682790
5.945000	-13.198800	290.152000	28.085800	0.214330	0.000000	-1.421400	-24.741900	2.753390	4.571450	-7.343990	293.328000	-28.998000	0.220446	0.000000	-0.985899	24.499800	-6.110140	6.720150
5.950000	-12.530800	292.034000	28.007100	0.213772	0.000000	-1.422040	-24.709700	2.973990	4.445100	-6.814690	295.991000	-29.364700	0.220458	0.000000	-0.987065	25.053300	-6.247880	6.791680
5.955000	-11.990900	295.990000	28.360400	0.213756	0.000000	-1.421650	-25.149500	3.120440	4.504830	-5.697630	302.147000	-29.617000	0.221221	0.000000	-0.986241	25.291800	-6.366120	7.143900
5.960000	-11.128200	301.323000	27.696800	0.214241	0.000000	-1.422430	-25.354200	3.387470	4.724200	-5.722000	306.571000	-28.723800	0.221688	0.000000	-0.986358	25.698300	-6.579150	7.368330
5.965000	-11.314500	304.668000	27.341800	0.214386	0.000000	-1.422820	-25.525600	3.594780	4.825420	-5.527320	309.645000	-28.061800	0.222499	0.000000	-0.986782	26.081200	-6.657940	7.669180
5.970000	-11.040700	305.332000	25.945300	0.214049	0.000000	-1.422840	-25.568800	3.658740	4.709350	-5.758920	311.093000	-26.942600	0.222465	0.000000	-0.986612	26.157000	-6.792550	7.670980
5.975000	-10.565800	308.481000	25.679200	0.214398	0.000000	-1.423920	-25.492500	3.779710	4.859160	-5.883260	314.670000	-26.205600	0.222429	0.000000	-0.986122	26.305500	-6.912870	7.723250
5.980000	-10.122200	311.967000	24.875700	0.214213	0.000000	-1.423620	-25.869200	4.042950	4.850960	-6.086670	318.644000	-25.161200	0.222586	0.000000	-0.986017	26.607000	-6.996910	7.834020
5.985000	-11.220900	315.972000	23.457300	0.214716	0.000000	-1.424690	-25.881200	4.104750	5.047830	-6.145130	320.975000	-24.654500	0.222716	0.000000	-0.986762	27.042600	-7.134580	7.921900
5.990000	-12.203600	317.433000	22.912200	0.214828	0.000000	-1.425020	-25.915700	4.125730	5.100390	-6.456260	325.615000	-24.038500	0.222343	0.000000	-0.985305	26.964700	-7.252350	7.889410
5.995000	-13.402900	317.919000	22.557100	0.214643	0.000000	-1.425160	-25.936200	4.158130	5.050640	-4.996850	326.625000	-25.090300	0.222326	0.000000	-0.985289	27.006100	-7.429950	7.937460
6.000000	-13.779600	320.981000	22.697700	0.214175	0.000000	-1.427280	-25.506400	4.160690	4.943720	-4.585280	330.721000	-24.902900	0.221687	0.000000	-0.984749	27.155900	-7.711080	7.821920
